<?xml version="1.0" encoding="UTF-8" standalone="no"?>
<!DOCTYPE svg PUBLIC '-//W3C//DTD SVG 1.1//EN' 'http://www.w3.org/Graphics/SVG/1.1/DTD/svg11.dtd'>
<svg width='100%' height='100%' xmlns='http://www.w3.org/2000/svg' xmlns:xlink='http://www.w3.org/1999/xlink'>
    <defs>
        <style type="text/css"><![CDATA[
        text{
            font: 12px Verdana, Helvetica, Arial, sans-serif;
            text-anchor: start;
        }
        rect{
            stroke: black;
            stroke-width: 1;
            fill: none;
        }
        ]]></style>
    </defs>
    <title>Table 1</title>
    <!-- Start column -->
    <g transform="translate(0,0)"> <!-- Don't move right -->
        <g transform="translate(0,20)"> <!-- Move down -->
            <rect height="20" width="30" x="0" y="0"/>
            <text x="2" y="16">Q1.</text>
        </g>
        <g transform="translate(0,40)"> <!-- Move down -->
            <rect height="20" width="30" x="0" y="0"/>
            <text x="2" y="16">Q2.</text>
        </g>
        <g transform="translate(0,60)"> <!-- Move down -->
            <rect height="20" width="30" x="0" y="0"/>
            <text x="2" y="16">Q3.</text>
        </g>
        <g transform="translate(0,80)"> <!-- Move down -->
            <rect height="20" width="30" x="0" y="0"/>
            <text x="2" y="16">Q4.</text>
        </g>
    </g> <!-- End column -->
    <!-- Start column -->
    <g transform="translate(30,0)"> <!-- Move right -->
        <g transform="translate(0,0)">
            <rect height="20" width="50" x="0" y="0"/>
            <text x="2" y="16">Sales</text>
        </g>
        <g transform="translate(0,20)"> <!-- Move down -->
            <rect height="20" width="50" x="0" y="0"/>
            <text x="2" y="16">$223</text>
        </g>
        <g transform="translate(0,40)"> <!-- Move down -->
            <rect height="20" width="50" x="0" y="0"/>
            <text x="2" y="16">$183</text>
        </g>
        <g transform="translate(0,60)"> <!-- Move down -->
            <rect height="20" width="50" x="0" y="0"/>
            <text x="2" y="16">$277</text>
        </g>
        <g transform="translate(0,80)"> <!-- Move down -->
            <rect height="20" width="50" x="0" y="0"/>
            <text x="2" y="16">$402</text>
        </g>
    </g> <!-- End column -->
    <!-- Start column -->
    <g transform="translate(80,0)"> <!-- Move right -->
        <g transform="translate(0,0)">
            <rect height="20" width="70" x="0" y="0"/>
            <text x="2" y="16">Expenses</text>
        </g>
        <g transform="translate(0,20)"> <!-- Move down -->
            <rect height="20" width="70" x="0" y="0"/>
            <text x="2" y="16">$195</text>
        </g>
        <g transform="translate(0,40)"> <!-- Move down -->
            <rect height="20" width="70" x="0" y="0"/>
            <text x="2" y="16">$70</text>
        </g>
        <g transform="translate(0,60)"> <!-- Move down -->
            <rect height="20" width="70" x="0" y="0"/>
            <text x="2" y="16">$88</text>
        </g>
        <g transform="translate(0,80)"> <!-- Move down -->
            <rect height="20" width="70" x="0" y="0"/>
            <text x="2" y="16">$133</text>
        </g>
    </g> <!-- End column -->
    <!-- Start column -->
    <g transform="translate(150,0)"> <!-- Move right -->
        <g transform="translate(0,0)">
            <rect height="20" width="40" x="0" y="0"/>
            <text x="2" y="16">Net</text>
        </g>
        <g transform="translate(0,20)"> <!-- Move down -->
            <rect height="20" width="40" x="0" y="0"/>
            <text x="2" y="16">$28</text>
        </g>
        <g transform="translate(0,40)"> <!-- Move down -->
            <rect height="20" width="40" x="0" y="0"/>
            <text x="2" y="16">$113</text>
        </g>
        <g transform="translate(0,60)"> <!-- Move down -->
            <rect height="20" width="40" x="0" y="0"/>
            <text x="2" y="16">$189</text>
        </g>
        <g transform="translate(0,80)"> <!-- Move down -->
            <rect height="20" width="40" x="0" y="0"/>
            <text x="2" y="16">$269</text>
        </g>
    </g> <!-- End column -->
</svg>
